<svg width="22" height="22" viewBox="0 0 22 22" fill="none" xmlns="http://www.w3.org/2000/svg">
<path fill-rule="evenodd" clip-rule="evenodd" d="M11 17.987L5.49447 20.4131C5.18563 20.5492 4.82492 20.4092 4.68882 20.1003C4.6462 20.0036 4.6294 19.8975 4.64004 19.7924L5.2461 13.8066L1.23745 9.32024C1.01257 9.06857 1.03429 8.68224 1.28597 8.45737C1.36478 8.38694 1.46051 8.33817 1.56381 8.3158L7.44389 7.04249L10.4719 1.84368C10.6418 1.55203 11.0159 1.45331 11.3076 1.62318C11.3989 1.67638 11.4749 1.75235 11.5281 1.84368L14.5561 7.04249L20.4362 8.3158C20.766 8.38723 20.9755 8.71254 20.9041 9.0424C20.8817 9.1457 20.833 9.24143 20.7625 9.32024L16.7539 13.8066L17.3599 19.7924C17.3939 20.1281 17.1493 20.4279 16.8135 20.4619C16.7083 20.4726 16.6022 20.4558 16.5055 20.4131L11 17.987Z" fill="#EEEFED"/>
</svg>
