<svg width="24" height="24" viewBox="0 0 24 24" fill="none" xmlns="http://www.w3.org/2000/svg">
<path fill-rule="evenodd" clip-rule="evenodd" d="M9.08134 3.53729C9.51838 3.25557 10.1643 2.99072 11.0278 2.99072H13.0013C13.7846 2.99072 14.4214 3.26666 14.8492 3.52693C15.0648 3.65813 15.2348 3.78973 15.3532 3.8908C15.4126 3.94155 15.4598 3.98524 15.494 4.01822C15.5111 4.03473 15.525 4.04862 15.5357 4.05944L15.5491 4.07334L15.554 4.07848L15.556 4.08058L15.5569 4.08151C15.5569 4.08151 15.5577 4.08236 15.0099 4.59462L15.5577 4.08236C15.5698 4.0953 15.5814 4.10866 15.5926 4.12242L16.988 5.84438H20.1124C20.8217 5.84438 21.4889 6.14951 21.9712 6.67088C22.4516 7.19029 22.7124 7.88308 22.7124 8.59437V18.2591C22.7124 18.9704 22.4516 19.6632 21.9712 20.1826C21.4889 20.704 20.8217 21.0091 20.1124 21.0091H3.8876C3.17834 21.0091 2.51115 20.704 2.02888 20.1826C1.54842 19.6632 1.2876 18.9704 1.2876 18.2591V8.59437C1.2876 7.88308 1.54842 7.19029 2.02888 6.67088C2.51115 6.14951 3.17833 5.84438 3.8876 5.84438H7.02285L8.41204 4.1301L8.41797 4.1224C8.42845 4.10902 8.44176 4.09253 8.45795 4.0734C8.49031 4.03517 8.53438 3.98613 8.59061 3.93007C8.70286 3.81816 8.86525 3.6766 9.08134 3.53729ZM9.60658 5.03701C9.60423 5.04024 9.60184 5.04345 9.59943 5.04664L9.5986 5.04766L9.60122 5.04423L9.60373 5.04088L9.60529 5.03878L9.60658 5.03701ZM14.4512 5.09649L16.0477 7.06657C16.1901 7.2423 16.4042 7.34438 16.6304 7.34438H20.1124C20.3845 7.34438 20.6584 7.46067 20.87 7.68944C21.0834 7.92018 21.2124 8.2448 21.2124 8.59437V18.2591C21.2124 18.6087 21.0834 18.9333 20.87 19.1641C20.6584 19.3928 20.3845 19.5091 20.1124 19.5091H3.8876C3.61556 19.5091 3.34163 19.3928 3.13002 19.1641C2.91659 18.9333 2.7876 18.6087 2.7876 18.2591V8.59437C2.7876 8.2448 2.91659 7.92018 3.13002 7.68944C3.34164 7.46067 3.61556 7.34438 3.8876 7.34438H7.38042C7.6066 7.34438 7.82071 7.2423 7.96311 7.06657L9.58364 5.06681C9.58902 5.06018 9.59428 5.05345 9.59943 5.04664C9.59943 5.04664 9.60134 5.04432 9.60292 5.04245C9.61009 5.03398 9.62561 5.01631 9.64968 4.99232C9.69802 4.94413 9.779 4.87222 9.89406 4.79805C10.1193 4.65282 10.4869 4.49072 11.0278 4.49072H13.0013C13.4281 4.49072 13.7956 4.64173 14.0696 4.80841C14.2048 4.89069 14.3101 4.97256 14.3792 5.03159C14.4126 5.0601 14.4369 5.08266 14.4512 5.09649ZM14.4512 5.09649L14.4524 5.09763C14.4595 5.10447 14.4639 5.10893 14.4656 5.11061" fill="#1B2129"/>
<path fill-rule="evenodd" clip-rule="evenodd" d="M12.0054 11.009C10.7628 11.009 9.75542 12.0164 9.75542 13.259C9.75542 14.5017 10.7628 15.509 12.0054 15.509C13.2481 15.509 14.2554 14.5017 14.2554 13.259C14.2554 12.0164 13.2481 11.009 12.0054 11.009ZM8.25542 13.259C8.25542 11.188 9.93435 9.50903 12.0054 9.50903C14.0765 9.50903 15.7554 11.188 15.7554 13.259C15.7554 15.3301 14.0765 17.009 12.0054 17.009C9.93435 17.009 8.25542 15.3301 8.25542 13.259Z" fill="#1B2129"/>
</svg>
