<svg width="18" height="18" viewBox="0 0 18 18" fill="none" xmlns="http://www.w3.org/2000/svg">
<path d="M4.11859 7.13905C5.40235 6.87846 6.36859 5.74348 6.36859 4.38281C6.36859 2.82951 5.10939 1.57031 3.55609 1.57031C2.00279 1.57031 0.743591 2.82951 0.743591 4.38281C0.743591 5.74348 1.70983 6.87846 2.99359 7.13905V11.8828C2.99359 12.4298 3.21089 12.9544 3.59768 13.3412C3.98448 13.728 4.50908 13.9453 5.05609 13.9453H9.95762C10.2683 13.9453 10.5201 13.6935 10.5201 13.3828C10.5201 13.0722 10.2683 12.8203 9.95762 12.8203H5.05609C4.80745 12.8203 4.56899 12.7215 4.39318 12.5457C4.21736 12.3699 4.11859 12.1315 4.11859 11.8828V7.13905ZM1.86859 4.38281C1.86859 3.45083 2.62411 2.69531 3.55609 2.69531C4.48807 2.69531 5.24359 3.45083 5.24359 4.38281C5.24359 5.31479 4.48807 6.07031 3.55609 6.07031C2.62411 6.07031 1.86859 5.31479 1.86859 4.38281Z" fill="#8B949E"/>
<path d="M15.0323 6.11023V10.854C16.316 11.1146 17.2822 12.2496 17.2822 13.6102C17.2822 15.1635 16.023 16.4227 14.4697 16.4227C12.9164 16.4227 11.6572 15.1635 11.6572 13.6102C11.6572 12.2495 12.6235 11.1145 13.9073 10.854V6.11023C13.9073 5.86159 13.8086 5.62313 13.6327 5.44732C13.4569 5.2715 13.2185 5.17273 12.9698 5.17273H8.05975C7.74909 5.17273 7.49725 4.92089 7.49725 4.61023C7.49725 4.29957 7.74909 4.04773 8.05975 4.04773H12.9698C13.5168 4.04773 14.0414 4.26503 14.4282 4.65182C14.815 5.03861 15.0323 5.56322 15.0323 6.11023ZM12.7822 13.6102C12.7822 14.5422 13.5377 15.2977 14.4697 15.2977C15.4017 15.2977 16.1572 14.5422 16.1572 13.6102C16.1572 12.6782 15.4017 11.9227 14.4697 11.9227C13.5377 11.9227 12.7822 12.6782 12.7822 13.6102Z" fill="#8B949E"/>
</svg>
