<svg width="24" height="24" viewBox="0 0 24 24" fill="none" xmlns="http://www.w3.org/2000/svg">
<path d="M4.99994 8C4.99994 7.44772 5.44765 7 5.99994 7H6.00994C6.56222 7 7.00994 7.44772 7.00994 8C7.00994 8.55228 6.56222 9 6.00994 9H5.99994C5.44765 9 4.99994 8.55228 4.99994 8Z" fill="#1B2129"/>
<path d="M8.99994 8C8.99994 7.44772 9.44765 7 9.99994 7H10.0099C10.5622 7 11.0099 7.44772 11.0099 8C11.0099 8.55228 10.5622 9 10.0099 9H9.99994C9.44765 9 8.99994 8.55228 8.99994 8Z" fill="#1B2129"/>
<path d="M10.9999 12C10.9999 11.4477 11.4477 11 11.9999 11H12.0099C12.5622 11 13.0099 11.4477 13.0099 12C13.0099 12.5523 12.5622 13 12.0099 13H11.9999C11.4477 13 10.9999 12.5523 10.9999 12Z" fill="#1B2129"/>
<path d="M13.9999 7C13.4477 7 12.9999 7.44772 12.9999 8C12.9999 8.55228 13.4477 9 13.9999 9H14.0099C14.5622 9 15.0099 8.55228 15.0099 8C15.0099 7.44772 14.5622 7 14.0099 7H13.9999Z" fill="#1B2129"/>
<path d="M14.9999 12C14.9999 11.4477 15.4477 11 15.9999 11H16.0099C16.5622 11 17.0099 11.4477 17.0099 12C17.0099 12.5523 16.5622 13 16.0099 13H15.9999C15.4477 13 14.9999 12.5523 14.9999 12Z" fill="#1B2129"/>
<path d="M17.9999 7C17.4477 7 16.9999 7.44772 16.9999 8C16.9999 8.55228 17.4477 9 17.9999 9H18.0099C18.5622 9 19.0099 8.55228 19.0099 8C19.0099 7.44772 18.5622 7 18.0099 7H17.9999Z" fill="#1B2129"/>
<path d="M6.99994 15.25C6.58573 15.25 6.24994 15.5858 6.24994 16C6.24994 16.4142 6.58573 16.75 6.99994 16.75H16.9999C17.4142 16.75 17.7499 16.4142 17.7499 16C17.7499 15.5858 17.4142 15.25 16.9999 15.25H6.99994Z" fill="#1B2129"/>
<path d="M6.99994 12C6.99994 11.4477 7.44765 11 7.99994 11H8.00994C8.56222 11 9.00994 11.4477 9.00994 12C9.00994 12.5523 8.56222 13 8.00994 13H7.99994C7.44765 13 6.99994 12.5523 6.99994 12Z" fill="#1B2129"/>
<path d="M3.99994 3.25C2.48116 3.25 1.24994 4.48122 1.24994 6V18C1.24994 19.5188 2.48116 20.75 3.99994 20.75H19.9999C21.5187 20.75 22.7499 19.5188 22.7499 18V6C22.7499 4.48122 21.5187 3.25 19.9999 3.25H3.99994ZM2.74994 6C2.74994 5.30964 3.30958 4.75 3.99994 4.75H19.9999C20.6903 4.75 21.2499 5.30964 21.2499 6V18C21.2499 18.6904 20.6903 19.25 19.9999 19.25H3.99994C3.30958 19.25 2.74994 18.6904 2.74994 18V6Z" fill="#1B2129"/>
</svg>
