<svg width="64" height="64" viewBox="0 0 64 64" fill="none" xmlns="http://www.w3.org/2000/svg">
<path d="M0 16C0 7.16344 7.16344 0 16 0H48C56.8366 0 64 7.16344 64 16V64H16C7.16344 64 0 56.8366 0 48V16Z" fill="url(#paint0_linear_368_3832)"/>
<path d="M34.3378 26.0488C34.679 24.9983 35.8078 24.4234 36.8583 24.7646C37.9087 25.1059 38.4836 26.2338 38.1425 27.2842C37.4316 29.4729 35.6261 31.1506 33.496 32.251C31.3362 33.3667 28.6495 34 25.787 34C22.9246 34 20.2378 33.3667 18.078 32.251C15.948 31.1506 14.1424 29.4729 13.4315 27.2842C13.0905 26.2338 13.6654 25.1059 14.7157 24.7646C15.7663 24.4234 16.895 24.9983 17.2362 26.0488C17.5137 26.903 18.3547 27.8918 19.914 28.6973C21.4436 29.4874 23.4891 30 25.787 30C28.0849 30 30.1304 29.4874 31.6601 28.6973C33.2193 27.8918 34.0603 26.903 34.3378 26.0488ZM17.8007 16C19.2659 16.0002 20.454 17.1944 20.454 18.667C20.4538 20.1395 19.2658 21.3328 17.8007 21.333H17.7733C16.3082 21.3328 15.1202 20.1395 15.12 18.667C15.12 17.1944 16.3081 16.0002 17.7733 16H17.8007ZM33.8007 16C35.2659 16.0002 36.454 17.1944 36.454 18.667C36.4538 20.1395 35.2658 21.3328 33.8007 21.333H33.7733C32.3082 21.3328 31.1202 20.1395 31.12 18.667C31.12 17.1944 32.3081 16.0002 33.7733 16H33.8007Z" fill="white"/>
<defs>
<linearGradient id="paint0_linear_368_3832" x1="18.963" y1="17.1163" x2="31.3701" y2="69.8004" gradientUnits="userSpaceOnUse">
<stop stop-color="#246FE5"/>
<stop offset="1" stop-color="#A053E8"/>
</linearGradient>
</defs>
</svg>
