<svg width="40" height="40" viewBox="0 0 40 40" fill="none" xmlns="http://www.w3.org/2000/svg">
<path d="M0 10C0 4.47715 4.47715 0 10 0H30C35.5228 0 40 4.47715 40 10V40H10C4.47715 40 0 35.5228 0 30V10Z" fill="url(#paint0_linear_356_3237)"/>
<path d="M21.4613 16.2803C21.6745 15.6238 22.38 15.2645 23.0365 15.4775C23.6931 15.6908 24.0525 16.3961 23.8392 17.0527C23.3949 18.4206 22.2671 19.4695 20.9359 20.1572C19.5861 20.8545 17.9065 21.25 16.1175 21.25C14.3286 21.25 12.649 20.8545 11.2992 20.1572C9.96787 19.4695 8.83917 18.4207 8.39488 17.0527C8.18167 16.3962 8.54111 15.6908 9.19761 15.4775C9.85415 15.2643 10.5595 15.6238 10.7728 16.2803C10.9462 16.8142 11.472 17.4321 12.4466 17.9355C13.4027 18.4294 14.6813 18.75 16.1175 18.75C17.5537 18.75 18.8324 18.4294 19.7884 17.9355C20.7627 17.4321 21.2879 16.8141 21.4613 16.2803ZM11.1253 10C12.0412 10 12.7836 10.7465 12.7836 11.667C12.7834 12.5873 12.0411 13.333 11.1253 13.333H11.1087C10.193 13.3329 9.45072 12.5873 9.45054 11.667C9.45054 10.7466 10.1929 10.0001 11.1087 10H11.1253ZM21.1253 10C22.0412 10 22.7836 10.7465 22.7836 11.667C22.7834 12.5873 22.0411 13.333 21.1253 13.333H21.1087C20.193 13.3329 19.4507 12.5873 19.4505 11.667C19.4505 10.7466 20.1929 10.0001 21.1087 10H21.1253Z" fill="white"/>
<defs>
<linearGradient id="paint0_linear_356_3237" x1="11.8519" y1="10.6977" x2="19.6063" y2="43.6252" gradientUnits="userSpaceOnUse">
<stop stop-color="#246FE5"/>
<stop offset="1" stop-color="#A053E8"/>
</linearGradient>
</defs>
</svg>
