<svg width="22" height="22" viewBox="0 0 22 22" fill="none" xmlns="http://www.w3.org/2000/svg">
<path d="M8.56939 2.15257C9.21405 1.50792 10.0884 1.14575 11.0001 1.14575C11.9118 1.14575 12.7861 1.50792 13.4308 2.15257C14.0754 2.79723 14.4376 3.67157 14.4376 4.58325V10.9999C14.4376 11.9116 14.0754 12.7859 13.4308 13.4306C12.7861 14.0753 11.9118 14.4374 11.0001 14.4374C10.0884 14.4374 9.21405 14.0753 8.56939 13.4306C7.92473 12.7859 7.56257 11.9116 7.56257 10.9999V4.58325C7.56257 3.67157 7.92473 2.79723 8.56939 2.15257ZM11.0001 2.52075C10.4531 2.52075 9.92846 2.73805 9.54166 3.12484C9.15487 3.51164 8.93757 4.03624 8.93757 4.58325V10.9999C8.93757 11.5469 9.15487 12.0715 9.54166 12.4583C9.92846 12.8451 10.4531 13.0624 11.0001 13.0624C11.5471 13.0624 12.0717 12.8451 12.4585 12.4583C12.8453 12.0715 13.0626 11.5469 13.0626 10.9999V4.58325C13.0626 4.03624 12.8453 3.51164 12.4585 3.12484C12.0717 2.73805 11.5471 2.52075 11.0001 2.52075Z" fill="#1B2129"/>
<path d="M4.5834 8.47909C4.9631 8.47909 5.2709 8.78689 5.2709 9.16659V10.9999C5.2709 12.5194 5.87451 13.9766 6.94894 15.0511C8.02337 16.1255 9.4806 16.7291 11.0001 16.7291C12.5195 16.7291 13.9768 16.1255 15.0512 15.0511C16.1256 13.9766 16.7292 12.5194 16.7292 10.9999V9.16659C16.7292 8.78689 17.037 8.47909 17.4167 8.47909C17.7964 8.47909 18.1042 8.78689 18.1042 9.16659V10.9999C18.1042 12.8841 17.3558 14.691 16.0235 16.0233C14.8542 17.1926 13.3193 17.9122 11.6876 18.0708V20.1666C11.6876 20.5463 11.3798 20.8541 11.0001 20.8541C10.6204 20.8541 10.3126 20.5463 10.3126 20.1666V18.0708C8.68079 17.9122 7.14592 17.1926 5.97667 16.0233C4.64438 14.691 3.8959 12.8841 3.8959 10.9999V9.16659C3.8959 8.78689 4.20371 8.47909 4.5834 8.47909Z" fill="#1B2129"/>
</svg>
