<svg width="20" height="20" viewBox="0 0 20 20" fill="none" xmlns="http://www.w3.org/2000/svg">
<path d="M16.4226 4.75596C16.748 4.43053 16.748 3.90289 16.4226 3.57745C16.0972 3.25201 15.5695 3.25201 15.2441 3.57745L10 8.82153L4.75593 3.57745C4.4305 3.25201 3.90286 3.25201 3.57742 3.57745C3.25198 3.90289 3.25198 4.43053 3.57742 4.75596L8.8215 10L3.57742 15.2441C3.25198 15.5696 3.25198 16.0972 3.57742 16.4226C3.90286 16.7481 4.4305 16.7481 4.75593 16.4226L10 11.1786L15.2441 16.4226C15.5695 16.7481 16.0972 16.7481 16.4226 16.4226C16.748 16.0972 16.748 15.5696 16.4226 15.2441L11.1785 10L16.4226 4.75596Z" fill="#1B2129"/>
</svg>
