<svg xmlns="http://www.w3.org/2000/svg" width="18" height="18" viewBox="0 0 24 24" fill="none">
  <path d="M8.691 2.188C3.891 2.188 0 5.476 0 9.53c0 2.212 1.17 4.203 3.002 5.55a.59.59 0 0 1 .213.665l-.39 1.48c-.019.07-.048.141-.048.213 0 .163.13.295.29.295a.326.326 0 0 0 .167-.054l1.903-1.114a.864.864 0 0 1 .717-.098 10.16 10.16 0 0 0 2.837.403c.276 0 .543-.027.811-.05a6.937 6.937 0 0 1-.271-1.883c0-3.723 3.369-6.737 7.527-6.737.266 0 .521.024.78.05C16.721 4.648 13.035 2.187 8.691 2.187zm-2.6 4.17a1.12 1.12 0 1 1 0-2.24 1.12 1.12 0 0 1 0 2.24zm5.198 0a1.12 1.12 0 1 1 0-2.24 1.12 1.12 0 0 1 0 2.24z" fill="#3FBE72"/>
  <path d="M23.76 15.2c0-3.291-3.166-5.962-7.07-5.962-3.97 0-7.07 2.671-7.07 5.962 0 3.293 3.1 5.963 7.07 5.963.786 0 1.545-.113 2.27-.321a.672.672 0 0 1 .563.076l1.498.877a.254.254 0 0 0 .13.043.227.227 0 0 0 .226-.228c0-.055-.022-.109-.037-.166l-.308-1.163a.462.462 0 0 1 .166-.52C22.788 18.845 23.76 17.13 23.76 15.2zm-9.397-1.19a.88.88 0 1 1 0-1.76.88.88 0 0 1 0 1.76zm4.656 0a.88.88 0 1 1 0-1.76.88.88 0 0 1 0 1.76z" fill="#3FBE72"/>
</svg>
