<svg width="40" height="40" viewBox="0 0 40 40" fill="none" xmlns="http://www.w3.org/2000/svg">
<path d="M0 10C0 4.47715 4.47715 0 10 0H30C35.5228 0 40 4.47715 40 10V40H10C4.47715 40 0 35.5228 0 30V10Z" fill="url(#paint0_linear_605_2967)"/>
<path fill-rule="evenodd" clip-rule="evenodd" d="M21.4613 16.2803C21.6746 15.6238 22.38 15.2645 23.0365 15.4775C23.6931 15.6908 24.0525 16.3961 23.8393 17.0527C23.395 18.4206 22.2671 19.4695 20.936 20.1572C19.5862 20.8545 17.9065 21.25 16.1176 21.25C14.3286 21.25 12.6491 20.8545 11.2992 20.1572C9.96793 19.4695 8.83923 18.4207 8.39494 17.0527C8.18173 16.3962 8.54118 15.6908 9.19768 15.4775C9.85421 15.2643 10.5595 15.6238 10.7729 16.2803C10.9463 16.8142 11.4721 17.4321 12.4467 17.9355C13.4028 18.4294 14.6814 18.75 16.1176 18.75C17.5537 18.75 18.8325 18.4294 19.7885 17.9355C20.7628 17.4321 21.288 16.8141 21.4613 16.2803ZM11.1254 10C12.0413 10 12.7836 10.7465 12.7836 11.667C12.7834 12.5873 12.0412 13.333 11.1254 13.333H11.1088C10.1931 13.3329 9.45078 12.5873 9.4506 11.667C9.4506 10.7466 10.193 10.0001 11.1088 10H11.1254ZM21.1254 10C22.0413 10 22.7836 10.7465 22.7836 11.667C22.7834 12.5873 22.0412 13.333 21.1254 13.333H21.1088C20.1931 13.3329 19.4508 12.5873 19.4506 11.667C19.4506 10.7466 20.193 10.0001 21.1088 10H21.1254Z" fill="white"/>
<defs>
<linearGradient id="paint0_linear_605_2967" x1="11.8519" y1="10.6977" x2="19.6063" y2="43.6252" gradientUnits="userSpaceOnUse">
<stop stop-color="#246FE5"/>
<stop offset="1" stop-color="#A053E8"/>
</linearGradient>
</defs>
</svg>
