<svg width="16" height="16" viewBox="0 0 16 16" fill="none" xmlns="http://www.w3.org/2000/svg">
<path fill-rule="evenodd" clip-rule="evenodd" d="M7.64575 2.14648C4.60819 2.14648 2.14575 4.60892 2.14575 7.64648C2.14575 10.6841 4.60819 13.1465 7.64575 13.1465C8.98453 13.1465 10.2116 12.6682 11.1653 11.8731L13.0009 13.7075C13.1962 13.9027 13.5128 13.9026 13.708 13.7073C13.9032 13.512 13.9031 13.1954 13.7078 13.0002L11.8724 11.166C12.6675 10.2122 13.1458 8.9852 13.1458 7.64648C13.1458 4.60892 10.6833 2.14648 7.64575 2.14648ZM3.14575 7.64648C3.14575 5.1612 5.16047 3.14648 7.64575 3.14648C10.131 3.14648 12.1458 5.1612 12.1458 7.64648C12.1458 10.1318 10.131 12.1465 7.64575 12.1465C5.16047 12.1465 3.14575 10.1318 3.14575 7.64648Z" fill="#8B949E"/>
</svg>
