<svg width="20" height="20" viewBox="0 0 20 20" fill="none" xmlns="http://www.w3.org/2000/svg">
<path d="M4.00025 19.4951C1.79111 19.4951 0.000243998 17.7043 0.000243822 15.4951L0.000242905 4.00023C0.000242729 1.79109 1.7911 0.000226932 4.00024 0.000226879L15.4951 0.000226603C17.7043 0.00022655 19.4951 1.79109 19.4951 4.00023L19.4951 15.4951C19.4951 17.7043 17.7043 19.4951 15.4951 19.4951L4.00025 19.4951Z" fill="#246FE5"/>
<path d="M7.36866 5.71225C7.95052 5.14454 8.72613 4.87354 9.67545 4.87354C10.5097 4.87354 11.2218 5.09253 11.7681 5.58344C12.3191 6.06634 12.5855 6.72624 12.5855 7.52936C12.5855 8.18309 12.4148 8.73913 12.0834 9.18097L12.0762 9.19065L12.0681 9.19965C11.9461 9.33521 11.5814 9.67345 11.0039 10.1787L10.999 10.183C10.8099 10.3406 10.6759 10.5167 10.5835 10.7014C10.4818 10.9048 10.4305 11.1175 10.4305 11.3673C10.4305 11.5167 10.3093 11.6379 10.1599 11.6379H8.76731C8.61784 11.6379 8.49667 11.5167 8.49667 11.3673C8.49667 10.8828 8.57253 10.4373 8.7674 10.0596C8.86452 9.85962 9.04373 9.62806 9.28278 9.36908C9.52431 9.10742 9.84163 8.80233 10.2323 8.45327L10.3637 8.29995C10.5455 8.07679 10.6275 7.84626 10.6275 7.61411C10.6275 7.27402 10.5266 7.03042 10.3652 6.85868C10.2013 6.6963 9.95366 6.60154 9.5907 6.60154C9.11285 6.60154 8.83948 6.7393 8.6767 6.97919L8.67363 6.98371L8.67039 6.9881C8.51339 7.20051 8.42074 7.53299 8.42074 8.01364C8.42074 8.16318 8.29951 8.2844 8.14998 8.2844H6.76979C6.62025 8.2844 6.49902 8.16318 6.49902 8.01364C6.49902 7.06481 6.77001 6.28434 7.36866 5.71225Z" fill="white"/>
<path d="M8.6069 12.1863C8.84122 11.9676 9.12621 11.8592 9.45753 11.8592C9.78525 11.8592 10.0835 11.9653 10.3203 12.1863L10.3271 12.1927C10.5468 12.4124 10.6726 12.699 10.6726 13.038C10.6726 13.3741 10.5484 13.6776 10.3082 13.9018C10.0738 14.1205 9.78884 14.2289 9.45753 14.2289C9.11708 14.2289 8.83446 14.1021 8.6069 13.8897C8.36289 13.662 8.25453 13.3685 8.25453 13.038C8.25453 12.7076 8.36289 12.414 8.6069 12.1863Z" fill="white"/>
</svg>
