<svg width="39" height="37" viewBox="0 0 39 37" fill="none" xmlns="http://www.w3.org/2000/svg">
<circle cx="27.9169" cy="15.7928" r="4.08643" transform="rotate(38.0939 27.9169 15.7928)" fill="#F55047"/>
<path d="M38.3527 20.6891C37.7611 20.4348 29.1059 10.4057 22.5848 19.8681C16.0637 29.3304 12.2112 26.4794 7.02424 22.6408" stroke="#1B2129" stroke-width="0.8"/>
<path d="M11.4265 16.0294C10.8961 16.5115 10.4032 16.6912 10.0609 16.7374C9.87092 16.7631 9.68563 16.9185 9.70676 17.109C9.90838 18.9268 11.3602 20.0327 12.1071 20.3723C13.4227 20.9995 14.937 19.6928 15.454 18.8429C15.4872 18.7884 15.4985 18.7243 15.4879 18.6615C15.3742 17.9844 15.0272 16.6543 14.4157 16.0536C13.6131 15.2652 12.409 15.1363 11.4265 16.0294Z" fill="#F55047"/>
<path d="M17.0098 18.1201C15.51 19.0469 11.459 19.7819 7.25341 15.3072M7.25341 15.3072C7.60138 15.4194 8.53644 15.1256 9.71966 14.5799C10.917 14.0278 12.2084 14.0576 13.46 15.0679C14.3894 15.8182 15.0062 17.485 15.253 18.3942C15.2893 18.5277 15.274 18.6699 15.2007 18.7873C14.5551 19.8226 12.7211 21.2369 10.9289 20.2989C9.81578 19.7379 7.52227 17.9541 7.25341 15.3072Z" stroke="#1B2129" stroke-width="0.524138"/>
</svg>
