<svg width="16" height="16" viewBox="0 0 16 16" fill="none" xmlns="http://www.w3.org/2000/svg">
<path fill-rule="evenodd" clip-rule="evenodd" d="M7.64563 2.14648C4.60806 2.14648 2.14563 4.60892 2.14563 7.64648C2.14563 10.6841 4.60806 13.1465 7.64563 13.1465C8.98441 13.1465 10.2115 12.6682 11.1652 11.8731L13.0008 13.7075C13.1961 13.9027 13.5127 13.9026 13.7079 13.7073C13.9031 13.512 13.903 13.1954 13.7077 13.0002L11.8723 11.166C12.6673 10.2122 13.1456 8.9852 13.1456 7.64648C13.1456 4.60892 10.6832 2.14648 7.64563 2.14648ZM3.14563 7.64648C3.14563 5.1612 5.16035 3.14648 7.64563 3.14648C10.1309 3.14648 12.1456 5.1612 12.1456 7.64648C12.1456 10.1318 10.1309 12.1465 7.64563 12.1465C5.16035 12.1465 3.14563 10.1318 3.14563 7.64648Z" fill="#8B949E"/>
</svg>
