<svg width="16" height="16" viewBox="0 0 16 16" fill="none" xmlns="http://www.w3.org/2000/svg">
<g clip-path="url(#clip0_605_1985)">
<path fill-rule="evenodd" clip-rule="evenodd" d="M15.1666 8.00016C15.1666 11.9582 11.958 15.1668 7.99992 15.1668C4.04188 15.1668 0.833252 11.9582 0.833252 8.00016C0.833252 4.04212 4.04188 0.833496 7.99992 0.833496C11.958 0.833496 15.1666 4.04212 15.1666 8.00016ZM10.8047 5.19542C11.065 5.45577 11.065 5.87788 10.8047 6.13823L8.94273 8.00016L10.8047 9.86209C11.065 10.1224 11.065 10.5446 10.8047 10.8049C10.5443 11.0652 10.1222 11.0652 9.86185 10.8049L7.99992 8.94297L6.13799 10.8049C5.87764 11.0652 5.45553 11.0652 5.19518 10.8049C4.93483 10.5446 4.93483 10.1224 5.19518 9.86209L7.05711 8.00016L5.19518 6.13823C4.93483 5.87788 4.93483 5.45577 5.19518 5.19542C5.45553 4.93507 5.87764 4.93507 6.13799 5.19542L7.99992 7.05735L9.86185 5.19542C10.1222 4.93507 10.5443 4.93507 10.8047 5.19542Z" fill="#8B949E"/>
</g>
<defs>
<clipPath id="clip0_605_1985">
<rect width="16" height="16" fill="white"/>
</clipPath>
</defs>
</svg>
