<svg width="24" height="24" viewBox="0 0 24 24" fill="none" xmlns="http://www.w3.org/2000/svg">
<path d="M5 8C5 7.44772 5.44772 7 6 7H6.01C6.56228 7 7.01 7.44772 7.01 8C7.01 8.55228 6.56228 9 6.01 9H6C5.44772 9 5 8.55228 5 8Z" fill="#1B2129"/>
<path d="M9 8C9 7.44772 9.44771 7 10 7H10.01C10.5623 7 11.01 7.44772 11.01 8C11.01 8.55228 10.5623 9 10.01 9H10C9.44771 9 9 8.55228 9 8Z" fill="#1B2129"/>
<path d="M11 12C11 11.4477 11.4477 11 12 11H12.01C12.5623 11 13.01 11.4477 13.01 12C13.01 12.5523 12.5623 13 12.01 13H12C11.4477 13 11 12.5523 11 12Z" fill="#1B2129"/>
<path d="M14 7C13.4477 7 13 7.44772 13 8C13 8.55228 13.4477 9 14 9H14.01C14.5623 9 15.01 8.55228 15.01 8C15.01 7.44772 14.5623 7 14.01 7H14Z" fill="#1B2129"/>
<path d="M15 12C15 11.4477 15.4477 11 16 11H16.01C16.5623 11 17.01 11.4477 17.01 12C17.01 12.5523 16.5623 13 16.01 13H16C15.4477 13 15 12.5523 15 12Z" fill="#1B2129"/>
<path d="M18 7C17.4477 7 17 7.44772 17 8C17 8.55228 17.4477 9 18 9H18.01C18.5623 9 19.01 8.55228 19.01 8C19.01 7.44772 18.5623 7 18.01 7H18Z" fill="#1B2129"/>
<path d="M7 15.25C6.58579 15.25 6.25 15.5858 6.25 16C6.25 16.4142 6.58579 16.75 7 16.75H17C17.4142 16.75 17.75 16.4142 17.75 16C17.75 15.5858 17.4142 15.25 17 15.25H7Z" fill="#1B2129"/>
<path d="M7 12C7 11.4477 7.44772 11 8 11H8.01C8.56228 11 9.01 11.4477 9.01 12C9.01 12.5523 8.56228 13 8.01 13H8C7.44772 13 7 12.5523 7 12Z" fill="#1B2129"/>
<path d="M4 3.25C2.48122 3.25 1.25 4.48122 1.25 6V18C1.25 19.5188 2.48122 20.75 4 20.75H20C21.5188 20.75 22.75 19.5188 22.75 18V6C22.75 4.48122 21.5188 3.25 20 3.25H4ZM2.75 6C2.75 5.30964 3.30964 4.75 4 4.75H20C20.6904 4.75 21.25 5.30964 21.25 6V18C21.25 18.6904 20.6904 19.25 20 19.25H4C3.30964 19.25 2.75 18.6904 2.75 18V6Z" fill="#1B2129"/>
</svg>
