<svg width="90" height="76" viewBox="0 0 90 76" fill="none" xmlns="http://www.w3.org/2000/svg">
<g clip-path="url(#clip0_605_6823)">
<rect x="17" y="75.8403" width="40" height="56" rx="4" transform="rotate(-90 17 75.8403)" fill="#1B2129"/>
<rect x="10.4138" y="69.5862" width="50.1723" height="69.1723" rx="3.58617" transform="rotate(-90 10.4138 69.5862)" fill="white" stroke="#1B2129" stroke-width="0.827669"/>
<rect x="45" y="27.2422" width="26" height="8" rx="4" fill="#E8ECF0"/>
<rect x="18" y="50" width="53" height="13" rx="3" fill="#E8ECF0"/>
<path d="M22.0002 44.7373C19.7911 44.7373 18.0002 42.9464 18.0002 40.7373L18.0002 29.2424C18.0002 27.0333 19.7911 25.2424 22.0002 25.2424L33.4951 25.2424C35.7043 25.2424 37.4951 27.0333 37.4951 29.2424L37.4951 40.7373C37.4951 42.9464 35.7043 44.7373 33.4951 44.7373L22.0002 44.7373Z" fill="#246FE5"/>
<path d="M25.3687 30.9544C25.9505 30.3867 26.7261 30.1157 27.6754 30.1157C28.5097 30.1157 29.2218 30.3347 29.7681 30.8256C30.3191 31.3085 30.5855 31.9684 30.5855 32.7716C30.5855 33.4253 30.4148 33.9813 30.0834 34.4232L30.0762 34.4328L30.0681 34.4418C29.9461 34.5774 29.5814 34.9156 29.0039 35.4209L28.999 35.4252C28.8099 35.5828 28.6759 35.7589 28.5835 35.9436C28.4818 36.147 28.4305 36.3597 28.4305 36.6094C28.4305 36.7589 28.3093 36.8801 28.1599 36.8801H26.7673C26.6178 36.8801 26.4967 36.7589 26.4967 36.6094C26.4967 36.125 26.5725 35.6795 26.7674 35.3018C26.8645 35.1018 27.0437 34.8702 27.2828 34.6113C27.5243 34.3496 27.8416 34.0445 28.2323 33.6955L28.3637 33.5421C28.5455 33.319 28.6275 33.0885 28.6275 32.8563C28.6275 32.5162 28.5266 32.2726 28.3652 32.1009C28.2013 31.9385 27.9537 31.8437 27.5907 31.8437C27.1129 31.8437 26.8395 31.9815 26.6767 32.2214L26.6736 32.2259L26.6704 32.2303C26.5134 32.4427 26.4207 32.7752 26.4207 33.2558C26.4207 33.4054 26.2995 33.5266 26.15 33.5266H24.7698C24.6202 33.5266 24.499 33.4054 24.499 33.2558C24.499 32.307 24.77 31.5265 25.3687 30.9544Z" fill="white"/>
<path d="M26.6069 37.4285C26.8412 37.2098 27.1262 37.1014 27.4575 37.1014C27.7853 37.1014 28.0835 37.2075 28.3203 37.4285L28.3271 37.4349C28.5468 37.6546 28.6726 37.9412 28.6726 38.2802C28.6726 38.6163 28.5484 38.9198 28.3082 39.144C28.0738 39.3627 27.7888 39.4711 27.4575 39.4711C27.1171 39.4711 26.8345 39.3443 26.6069 39.1319C26.3629 38.9042 26.2545 38.6106 26.2545 38.2802C26.2545 37.9498 26.3629 37.6562 26.6069 37.4285Z" fill="white"/>
<circle cx="79.7374" cy="54.7928" r="4.08643" transform="rotate(38.0939 79.7374 54.7928)" fill="#F55047"/>
<path d="M90.1732 59.6891C89.5816 59.4348 80.9265 49.4057 74.4053 58.8681C67.8842 68.3304 64.0317 65.4794 58.8448 61.6408" stroke="#1B2129" stroke-width="0.8"/>
<path d="M63.2471 55.0294C62.7166 55.5115 62.2237 55.6912 61.8814 55.7374C61.6914 55.7631 61.5061 55.9185 61.5273 56.109C61.7289 57.9268 63.1807 59.0327 63.9276 59.3723C65.2433 59.9995 66.7575 58.6928 67.2746 57.8429C67.3077 57.7884 67.319 57.7243 67.3084 57.6615C67.1947 56.9844 66.8478 55.6543 66.2363 55.0536C65.4336 54.2652 64.2295 54.1363 63.2471 55.0294Z" fill="#F55047"/>
<path d="M68.8303 57.1201C67.3305 58.0469 63.2796 58.7819 59.0739 54.3072M59.0739 54.3072C59.4219 54.4194 60.357 54.1256 61.5402 53.5799C62.7376 53.0278 64.0289 53.0576 65.2805 54.0679C66.2099 54.8182 66.8267 56.485 67.0735 57.3942C67.1098 57.5277 67.0945 57.6699 67.0212 57.7873C66.3757 58.8226 64.5416 60.2369 62.7495 59.2989C61.6363 58.7379 59.3428 56.9541 59.0739 54.3072Z" stroke="#1B2129" stroke-width="0.524138"/>
<path d="M9.89684 39.4766C3.04792 43.5376 -0.737979 47.635 0.0754526 50.8983C1.14335 55.1824 9.88574 57.0153 22.3084 56.289M78.7681 23.4394C84.7803 24.1329 88.6685 25.877 89.3579 28.6429C90.0181 31.2914 87.6486 34.4895 83.0707 37.7715C79.8935 40.0494 75.6525 42.3678 70.6224 44.571" stroke="#1B2129" stroke-width="0.5" stroke-dasharray="2.4 2.4"/>
<circle cx="70.7825" cy="44.0247" r="1.4554" transform="rotate(15 70.7825 44.0247)" fill="#1B2129"/>
<circle cx="24.2109" cy="56.453" r="2.65241" transform="rotate(13.8668 24.2109 56.453)" fill="#1B2129"/>
</g>
<defs>
<clipPath id="clip0_605_6823">
<rect width="90" height="76" fill="white"/>
</clipPath>
</defs>
</svg>
