<svg width="20" height="20" viewBox="0 0 20 20" fill="none" xmlns="http://www.w3.org/2000/svg">
<path fill-rule="evenodd" clip-rule="evenodd" d="M17.5794 1.09934C17.7622 1.03534 17.9591 1.02299 18.1483 1.06516C18.2924 1.09737 18.4281 1.15949 18.5454 1.24745L18.6569 1.34429L18.7529 1.45497C18.8116 1.53323 18.8591 1.61982 18.8937 1.71132L18.936 1.85211L18.958 1.99778C18.969 2.14041 18.9485 2.28416 18.901 2.42014L18.9026 2.42095L13.486 18.2543C13.417 18.4551 13.2877 18.6308 13.1165 18.7564C12.9453 18.882 12.7396 18.9527 12.5273 18.9582C12.315 18.9637 12.105 18.9039 11.9276 18.7873C11.7946 18.6999 11.684 18.5829 11.6037 18.4472L11.5337 18.3047L8.88312 11.6942C8.8319 11.5677 8.75574 11.4514 8.66013 11.3541C8.6578 11.3518 8.65512 11.3499 8.65281 11.3475C8.65078 11.3455 8.64911 11.3431 8.64711 11.341C8.57402 11.2692 8.49099 11.2086 8.40053 11.1612L8.3045 11.1172L1.69562 8.4675C1.49874 8.38842 1.33056 8.24998 1.21385 8.07281C1.09715 7.89539 1.03681 7.68613 1.04213 7.47385L1.05841 7.31597C1.08637 7.16046 1.14968 7.01236 1.24396 6.88385L1.34731 6.76422C1.45906 6.6524 1.59523 6.56692 1.74607 6.51519L17.5794 1.09934ZM9.91583 10.9675C9.92541 10.9847 9.9368 11.0014 9.94594 11.0188L10.0436 11.2287L12.4842 17.3168L17.1204 3.76373L9.91583 10.9675ZM2.68194 7.51536L8.77 9.95676C8.86042 9.99298 8.94647 10.0365 9.03123 10.0837L16.2391 2.87668L2.68194 7.51536Z" fill="white"/>
</svg>
